<svg width="32" height="38" viewBox="0 0 32 38" fill="none" xmlns="http://www.w3.org/2000/svg">
<path fill-rule="evenodd" clip-rule="evenodd" d="M6.35592 14.1738C6.69938 13.7731 7.30264 13.7267 7.70334 14.0702L16.0002 21.1818L24.2971 14.0702C24.6978 13.7267 25.301 13.7731 25.6445 14.1738C25.988 14.5745 25.9415 15.1778 25.5408 15.5212L16.6221 23.1659C16.2642 23.4726 15.7362 23.4726 15.3783 23.1659L6.45957 15.5212C6.05887 15.1778 6.01246 14.5745 6.35592 14.1738Z" fill="#FFBF00"/>
<path fill-rule="evenodd" clip-rule="evenodd" d="M6.35592 19.875C6.69938 19.4743 7.30264 19.4279 7.70334 19.7713L16.0002 26.8829L24.2971 19.7713C24.6978 19.4279 25.301 19.4743 25.6445 19.875C25.988 20.2757 25.9415 20.8789 25.5408 21.2224L16.6221 28.867C16.2642 29.1738 15.7362 29.1738 15.3783 28.867L6.45957 21.2224C6.05887 20.8789 6.01246 20.2757 6.35592 19.875Z" fill="#FFBF00"/>
</svg>
