<svg width="19" height="19" viewBox="0 0 19 19" fill="none" xmlns="http://www.w3.org/2000/svg">
<path fill-rule="evenodd" clip-rule="evenodd" d="M0.942871 9.21514V5.78875C0.942871 3.36593 0.942871 2.15452 1.69554 1.40184C2.44822 0.64917 3.65963 0.64917 6.08245 0.64917H12.9352C15.358 0.64917 16.5695 0.64917 17.3221 1.40184C18.0748 2.15452 18.0748 3.36593 18.0748 5.78875V9.21514C18.0748 11.638 18.0748 12.8494 17.3221 13.602C16.7684 14.1557 15.9665 14.3021 14.6167 14.3408C14.6136 13.7105 14.3946 13.0811 13.9598 12.5709C13.9352 12.542 13.9204 12.5062 13.9173 12.4684C13.8099 11.1222 12.741 10.0533 11.3949 9.94589C11.3571 9.94288 11.3212 9.92802 11.2923 9.90343C10.2645 9.02753 8.75283 9.02753 7.72502 9.90343C7.69616 9.92802 7.66029 9.94288 7.6225 9.94589C6.27637 10.0533 5.20744 11.1222 5.10001 12.4684C5.097 12.5062 5.08214 12.542 5.05755 12.5709C4.62277 13.0811 4.4038 13.7105 4.40066 14.3408C3.05104 14.3021 2.24919 14.1557 1.69554 13.602C0.942871 12.8494 0.942871 11.638 0.942871 9.21514ZM6.2966 4.07556C6.2966 3.72074 6.58423 3.43311 6.93905 3.43311H12.0786C12.4334 3.43311 12.7211 3.72074 12.7211 4.07556C12.7211 4.43037 12.4334 4.718 12.0786 4.718H6.93905C6.58423 4.718 6.2966 4.43037 6.2966 4.07556ZM5.22585 6.4312C4.87104 6.4312 4.58341 6.71883 4.58341 7.07364C4.58341 7.42846 4.87104 7.71609 5.22585 7.71609H13.7918C14.1466 7.71609 14.4343 7.42846 14.4343 7.07364C14.4343 6.71883 14.1466 6.4312 13.7918 6.4312H5.22585Z" fill="#F8F8F8"/>
<path fill-rule="evenodd" clip-rule="evenodd" d="M10.4589 10.8814C9.91136 10.4147 9.106 10.4147 8.55842 10.8814C8.32377 11.0813 8.03202 11.2022 7.72471 11.2267C7.00755 11.2839 6.43807 11.8534 6.38084 12.5706C6.35631 12.8779 6.23547 13.1697 6.0355 13.4043C5.56886 13.9519 5.56886 14.7572 6.0355 15.3048C6.23547 15.5395 6.35631 15.8312 6.38084 16.1385C6.43807 16.8557 7.00755 17.4252 7.72471 17.4824C8.03202 17.5069 8.32377 17.6278 8.55842 17.8277C9.106 18.2944 9.91136 18.2944 10.4589 17.8277C10.6936 17.6278 10.9853 17.5069 11.2927 17.4824C12.0098 17.4252 12.5793 16.8557 12.6365 16.1385C12.661 15.8312 12.7819 15.5395 12.9819 15.3048C13.4485 14.7572 13.4485 13.9519 12.9819 13.4043C12.7819 13.1697 12.661 12.8779 12.6365 12.5706C12.5793 11.8534 12.0098 11.2839 11.2927 11.2267C10.9853 11.2022 10.6936 11.0813 10.4589 10.8814ZM11.2321 13.9678C11.4915 13.7257 11.5055 13.3192 11.2634 13.0598C11.0213 12.8004 10.6148 12.7864 10.3554 13.0285L8.95817 14.3325L8.6623 14.0564C8.40291 13.8143 7.99638 13.8283 7.75428 14.0877C7.51218 14.3471 7.5262 14.7536 7.78559 14.9957L8.51982 15.681C8.76665 15.9114 9.14969 15.9114 9.39652 15.681L11.2321 13.9678Z" fill="#F8F8F8"/>
</svg>
