<svg width="22" height="22" viewBox="0 0 22 22" fill="none" xmlns="http://www.w3.org/2000/svg">
<path d="M18.0374 14.8685L18.6418 11.3738C18.7927 10.5009 18.1215 9.70256 17.2366 9.70256H12.7985C12.3587 9.70256 12.0237 9.30774 12.0949 8.87318L12.6626 5.40863C12.7548 4.84578 12.7284 4.26985 12.5852 3.7178C12.4666 3.26047 12.1138 2.89326 11.6497 2.74419L11.5255 2.7043C11.2451 2.6142 10.939 2.63517 10.6746 2.76258C10.3836 2.90282 10.1707 3.15862 10.0917 3.46284L9.68426 5.03372C9.5546 5.53353 9.36575 6.01598 9.12224 6.47183C8.76645 7.13788 8.21636 7.67094 7.64455 8.16368L6.41213 9.22568C6.06465 9.52511 5.88216 9.97355 5.9217 10.4308L6.6174 18.4766C6.68121 19.2146 7.29822 19.7811 8.03813 19.7811H12.0201C15.0022 19.7811 17.5472 17.7033 18.0374 14.8685Z" fill="#F8F8F8"/>
<path fill-rule="evenodd" clip-rule="evenodd" d="M3.21668 9.06091C3.5604 9.04608 3.8548 9.30465 3.88444 9.64742L4.7167 19.2726C4.77017 19.8909 4.28316 20.4238 3.66129 20.4238C3.07553 20.4238 2.60193 19.9486 2.60193 19.3639V9.70276C2.60193 9.35872 2.87296 9.07574 3.21668 9.06091Z" fill="#F8F8F8"/>
</svg>
