<svg width="18" height="18" viewBox="0 0 18 18" fill="none" xmlns="http://www.w3.org/2000/svg">
<path fill-rule="evenodd" clip-rule="evenodd" d="M15.5185 0.470882C16.8132 0.301555 17.8784 1.36675 17.7091 2.66142C17.4501 4.64176 16.7406 7.98327 14.749 10.1306C14.0908 10.8404 13.2899 11.4949 12.4692 12.0735L12.5095 12.0677L12.7472 13.7317C12.8084 14.1605 12.6642 14.5931 12.358 14.8993L9.68373 17.5736C8.88192 18.3754 7.50885 17.9177 7.34849 16.7952L6.99192 14.2992L7.07595 14.2872C6.80602 14.1786 6.55591 14.0147 6.34339 13.8022L4.37773 11.8366C4.16519 11.624 4.00137 11.3739 3.89274 11.104L3.88073 11.188L1.38476 10.8315C0.262228 10.6711 -0.195463 9.29804 0.606347 8.49623L3.2806 5.82198C3.58686 5.51572 4.01945 5.37152 4.44822 5.43278L6.11219 5.67049L6.10644 5.71079C6.685 4.89003 7.33955 4.0892 8.04931 3.43092C10.1967 1.43931 13.5382 0.729885 15.5185 0.470882ZM2.5524 12.0619C2.76157 12.2711 2.76157 12.6102 2.5524 12.8194L1.36384 14.0079C1.15467 14.2171 0.815538 14.2171 0.606366 14.0079C0.397194 13.7987 0.397194 13.4596 0.606366 13.2504L1.79492 12.0619C2.00409 11.8527 2.34323 11.8527 2.5524 12.0619ZM4.33523 13.8447C4.5444 14.0539 4.5444 14.393 4.33523 14.6022L1.95812 16.9793C1.74895 17.1885 1.40982 17.1885 1.20064 16.9793C0.991472 16.7701 0.991473 16.431 1.20064 16.2218L3.57775 13.8447C3.78693 13.6355 4.12606 13.6355 4.33523 13.8447ZM6.11806 15.6275C6.32724 15.8367 6.32724 16.1759 6.11806 16.385L4.92951 17.5736C4.72034 17.7827 4.3812 17.7827 4.17203 17.5736C3.96286 17.3644 3.96286 17.0253 4.17203 16.8161L5.36059 15.6275C5.56976 15.4184 5.90889 15.4184 6.11806 15.6275ZM10.4953 7.68498C9.83892 7.02856 9.83892 5.96429 10.4953 5.30787C11.1518 4.65145 12.216 4.65145 12.8724 5.30787C13.5289 5.96429 13.5289 7.02856 12.8724 7.68498C12.216 8.3414 11.1518 8.3414 10.4953 7.68498Z" fill="#F8F8F8"/>
</svg>

