<svg width="17" height="18" viewBox="0 0 17 18" fill="none" xmlns="http://www.w3.org/2000/svg">
<path fill-rule="evenodd" clip-rule="evenodd" d="M1.10219 3.29028C0.778809 3.75102 0.778809 5.12054 0.778809 7.85958V9.20847C0.778809 14.038 4.40989 16.3817 6.68809 17.3769C7.30609 17.6469 7.61508 17.7818 8.48818 17.7818C9.36127 17.7818 9.67027 17.6469 10.2883 17.3769C12.5665 16.3817 16.1975 14.038 16.1975 9.20847V7.85958C16.1975 5.12054 16.1975 3.75102 15.8742 3.29028C15.5508 2.82955 14.2631 2.38876 11.6876 1.50718L11.197 1.33922C9.85447 0.879675 9.18321 0.649902 8.48818 0.649902C7.79315 0.649902 7.12189 0.879675 5.77938 1.33922L5.28871 1.50718C2.71328 2.38876 1.42557 2.82955 1.10219 3.29028ZM11.1089 7.93056C11.3452 7.66589 11.3222 7.25976 11.0576 7.02345C10.7929 6.78714 10.3868 6.81013 10.1504 7.0748L7.5704 9.96445L6.82591 9.13063C6.5896 8.86596 6.18348 8.84297 5.91881 9.07928C5.65414 9.31559 5.63115 9.72172 5.86746 9.98639L7.09117 11.3569C7.21306 11.4935 7.38738 11.5715 7.5704 11.5715C7.75341 11.5715 7.92773 11.4935 8.04962 11.3569L11.1089 7.93056Z" fill="#F8F8F8"/>
</svg>
